<?xml version="1.0" encoding="UTF-8" standalone="no"?>
<!DOCTYPE svg PUBLIC "-//W3C//DTD SVG 1.1//EN"
 "http://www.w3.org/Graphics/SVG/1.1/DTD/svg11.dtd">
<!-- Generated by graphviz version 2.43.0 (0)
 -->
<!-- Title: packages Pages: 1 -->
<svg width="855pt" height="44pt"
 viewBox="0.00 0.00 854.50 44.00" xmlns="http://www.w3.org/2000/svg" xmlns:xlink="http://www.w3.org/1999/xlink">
<g id="graph0" class="graph" transform="scale(1 1) rotate(0) translate(4 40)">
<title>packages</title>
<polygon fill="white" stroke="transparent" points="-4,4 -4,-40 850.5,-40 850.5,4 -4,4"/>
<!-- elution_profile -->
<g id="node1" class="node">
<title>elution_profile</title>
<polygon fill="none" stroke="black" points="119,-36 0,-36 0,0 119,0 119,-36"/>
<text text-anchor="middle" x="59.5" y="-14.3" font-family="Times,serif" font-size="14.00">elution_profile</text>
</g>
<!-- msrun -->
<g id="node2" class="node">
<title>msrun</title>
<polygon fill="none" stroke="black" points="199.5,-36 137.5,-36 137.5,0 199.5,0 199.5,-36"/>
<text text-anchor="middle" x="168.5" y="-14.3" font-family="Times,serif" font-size="14.00">msrun</text>
</g>
<!-- problem_wrapper -->
<g id="node3" class="node">
<title>problem_wrapper</title>
<polygon fill="none" stroke="black" points="361,-36 218,-36 218,0 361,0 361,-36"/>
<text text-anchor="middle" x="289.5" y="-14.3" font-family="Times,serif" font-size="14.00">problem_wrapper</text>
</g>
<!-- proteoform -->
<g id="node4" class="node">
<title>proteoform</title>
<polygon fill="none" stroke="black" points="476,-36 379,-36 379,0 476,0 476,-36"/>
<text text-anchor="middle" x="427.5" y="-14.3" font-family="Times,serif" font-size="14.00">proteoform</text>
</g>
<!-- proteoform0 -->
<g id="node5" class="node">
<title>proteoform0</title>
<polygon fill="none" stroke="black" points="600.5,-36 494.5,-36 494.5,0 600.5,0 600.5,-36"/>
<text text-anchor="middle" x="547.5" y="-14.3" font-family="Times,serif" font-size="14.00">proteoform0</text>
</g>
<!-- psm -->
<g id="node6" class="node">
<title>psm</title>
<polygon fill="none" stroke="black" points="672.5,-36 618.5,-36 618.5,0 672.5,0 672.5,-36"/>
<text text-anchor="middle" x="645.5" y="-14.3" font-family="Times,serif" font-size="14.00">psm</text>
</g>
<!-- qc -->
<g id="node7" class="node">
<title>qc</title>
<polygon fill="none" stroke="black" points="744.5,-36 690.5,-36 690.5,0 744.5,0 744.5,-36"/>
<text text-anchor="middle" x="717.5" y="-14.3" font-family="Times,serif" font-size="14.00">qc</text>
</g>
<!-- spectrum -->
<g id="node8" class="node">
<title>spectrum</title>
<polygon fill="none" stroke="black" points="846.5,-36 762.5,-36 762.5,0 846.5,0 846.5,-36"/>
<text text-anchor="middle" x="804.5" y="-14.3" font-family="Times,serif" font-size="14.00">spectrum</text>
</g>
</g>
</svg>
